<svg xmlns="http://www.w3.org/2000/svg" xmlns:xlink="http://www.w3.org/1999/xlink" width="48" height="48" id="creative"><defs><linearGradient id="b" x1="868.253" x2="937.656" y1="521.354" y2="588.736" gradientTransform="translate(-1326.968 211.343) scale(1.53785)" gradientUnits="userSpaceOnUse" xlink:href="#a"></linearGradient><linearGradient id="a"><stop offset="0" stop-color="#24f3d2"></stop><stop offset=".394" stop-color="#0674f0"></stop><stop offset=".507" stop-color="#6961b5"></stop><stop offset=".813" stop-color="#f34660"></stop><stop offset="1" stop-color="#ee078d"></stop></linearGradient></defs><g transform="translate(0 -1004.362)"><rect width="48" height="48" y="1004.362" fill="url(#b)" rx="10.144" ry="10.144"></rect><path style="line-height:normal;text-indent:0;text-align:start;text-decoration-line:none;text-decoration-style:solid;text-decoration-color:#000;text-transform:none;block-progression:tb;isolation:auto;mix-blend-mode:normal" fill="#fff" d="M24.572 1015.36h-.021l-.59.017h-.045l-.32.04-.496.061.125.992.496-.062.293-.035.545-.02h.068l.5.027.055-1-.498-.025H24.572zm1.727.229-.317.949.475.158.178.06.672.327.449.219.437-.9-.449-.22-.697-.339-.03-.014-.03-.012-.214-.07-.474-.158zm-4.301.244-.453.21-.479.222-.039.016-.035.025-.39.27-.41.284.568.822.412-.283.351-.246.44-.201.455-.211-.42-.908zm7.127 1.281-.715.7.35.357.379.388.209.305.283.414.824-.566-.281-.412-.235-.342-.025-.035-.03-.031-.41-.42-.349-.357zm-4.625.248c-2.733 0-4.951 2.247-4.963 5H12.5a.5.5 0 0 0-.5.5v14.5h-1.5a.5.5 0 0 0-.5.5c0 1.409 1.26 2.5 2.74 2.5h23.52c1.48 0 2.74-1.091 2.74-2.5a.5.5 0 0 0-.5-.5H37v-14.5a.5.5 0 0 0-.5-.5h-7.037c-.012-2.753-2.23-5-4.963-5zm-5.193.272-.291.406-.518.723-.02.025-.015.027-.053.1-.234.441.88.47.237-.44.037-.069.498-.695.291-.406-.812-.582zm5.193.728c2.193 0 3.965 1.792 3.965 4.022 0 1.191-.577 1.97-1.256 3.002-.61.926-1.202 2.113-1.33 3.73H25v-2.697a.5.5 0 1 0-1 0v2.697h-.879c-.128-1.617-.72-2.804-1.33-3.73-.68-1.032-1.256-1.81-1.256-3.002 0-2.23 1.772-4.022 3.965-4.022zm6.51 1.362-.957.29.144.48.114.372.002.012.11.541.102.49.98-.2-.1-.491-.114-.553-.004-.023-.008-.022-.125-.418-.144-.478zm-13.24.693-.11.486-.045.196-.111.488.976.22.11-.486.045-.195.111-.488-.976-.221zm-4.77 2.945h6.65c.236 1.013.8 1.802 1.307 2.573.66 1.002 1.256 1.997 1.256 3.681v2.176a.5.5 0 0 0 .5.5h3.574a.5.5 0 0 0 .5-.5v-2.176c0-1.685.595-2.679 1.256-3.682.508-.77 1.071-1.559 1.307-2.572H36v14H13v-14zm1.5 1.004a.5.5 0 0 0-.5.5v11a.5.5 0 0 0 .5.5h20a.5.5 0 0 0 .5-.5v-11a.5.5 0 0 0-.5-.5H30v1h4v10H15v-10h4v-1h-4.5zm8.713 5.75h1.21a.5.5 0 0 0 .153 0h1.211v1.176h-2.574v-1.176zm-.076 3.246a.5.5 0 0 0 .05 1h2.626a.5.5 0 1 0 0-1h-2.625a.5.5 0 0 0-.051 0zm-11.903 5H37.766c-.247.55-.743 1-1.506 1H12.74c-.763 0-1.259-.45-1.506-1z" color="#000" font-family="sans-serif" font-weight="400" overflow="visible"></path></g></svg>