<svg xmlns="http://www.w3.org/2000/svg" viewBox="0 0 96 96" id="designer"><linearGradient id="a" x1="663.608" x2="690.724" y1="-315.066" y2="-344.945" gradientTransform="matrix(3.0757 0 0 -3.0757 -2035.172 -967.449)" gradientUnits="userSpaceOnUse"><stop offset="0" stop-color="#ed277a"></stop><stop offset="1" stop-color="#f47721"></stop></linearGradient><path fill="url(#a)" d="M20.288 0h55.424C86.917 0 96 9.083 96 20.288v55.424C96 86.917 86.917 96 75.712 96H20.288C9.083 96 0 86.917 0 75.712V20.288C0 9.083 9.083 0 20.288 0z"></path><path fill="#f1f2f2" d="M47.021 36.5c0 .827.673 1.5 1.5 1.5s1.5-.673 1.5-1.5a.5.5 0 0 0-1 0c0 .275-.225.5-.5.5s-.5-.225-.5-.5a.5.5 0 0 0-1 0zm1.5 5.509c.977 0 1.201-.002 1.648-.006l.355-.003a.5.5 0 0 0 .496-.504c-.002-.275-.231-.529-.504-.496l-.355.003c-.446.004-.669.006-1.641.006-.971 0-1.193-.002-1.639-.006L46.524 41h-.004a.5.5 0 0 0-.004 1l.356.003c.448.004.673.006 1.649.006zm.747 1.068a.5.5 0 0 0-.253-.068c-.022.01-.069.001-.11.002l-.088.001a9.705 9.705 0 0 0-.591 0l-.083-.001-.106-.002a.458.458 0 0 0-.248.063c-.169.063-.263.188-.263.437 0 .128.038.316.239.422a.493.493 0 0 0 .264.078l.063.001.063.002c.008-.004.021-.001.033-.001h.672l.03.001c.025.006.043-.001.063-.002l.066-.001a.494.494 0 0 0 .283-.091.452.452 0 0 0 .216-.409c-.001-.242-.089-.366-.25-.432z"></path><circle cx="45.02" cy="33.999" r="1" fill="#f1f2f2"></circle><path fill="#f1f2f2" d="M46.604 32.803a.496.496 0 0 0 .699.101.499.499 0 0 0 .102-.699 3.015 3.015 0 0 0-2.277-1.202c-.03-.003-.061-.002-.091-.003-.028.001-.06 0-.09.003a3.007 3.007 0 0 0-2.276 1.201.499.499 0 1 0 .801.597c.373-.499.941-.79 1.565-.802a1.991 1.991 0 0 1 1.567.804z"></path><circle cx="52.02" cy="33.999" r="1" fill="#f1f2f2"></circle><path fill="#f1f2f2" d="M50.472 32.802c.373-.499.941-.79 1.565-.802a1.988 1.988 0 0 1 1.567.803.496.496 0 0 0 .699.101.499.499 0 0 0 .102-.699 3.015 3.015 0 0 0-2.277-1.202c-.03-.003-.061-.002-.091-.003-.027.001-.06 0-.09.003a3.007 3.007 0 0 0-2.276 1.201.499.499 0 0 0 .102.699.498.498 0 0 0 .699-.101z"></path><path fill="#f1f2f2" d="m52.79 47.988-.787-.028.008-1.467c.434-.325.76-.783.91-1.322 2.493-1.274 4.099-3.859 4.099-6.671V36h.48c.827 0 1.5-.673 1.5-1.5v-3c0-.827-.673-1.5-1.5-1.5h-.479v-.092c.581-.207 1-.757 1-1.408v-3c0-1.379-1.121-2.5-2.5-2.5h-11c-.827 0-1.5-.673-1.5-1.5a.5.5 0 0 0-.5-.5c-1.93 0-3.5 1.57-3.5 3.5v4c0 .651.419 1.201 1 1.408V30h-.5c-.827 0-1.5.673-1.5 1.5v3c0 .827.673 1.5 1.5 1.5h.5v2.5c0 2.812 1.609 5.402 4.105 6.676.151.533.469.991.901 1.316l-.008 1.496h-1.79C35.934 47.988 30 53.922 30 61.216V74.5a.5.5 0 0 0 .5.5h35a.5.5 0 0 0 .5-.5V61.216c0-7.294-5.934-13.228-13.21-13.228zm.193 1.011c-.159 2.339-2.091 4.198-4.469 4.198-2.382 0-4.317-1.865-4.471-4.209h.999c.145 1.794 1.634 3.214 3.464 3.214 1.841 0 3.338-1.436 3.468-3.242l.798.028c.072 0 .14.01.211.011zM45.021 44.5v-3c0-.827.673-1.5 1.5-1.5h4c.827 0 1.5.673 1.5 1.5v3a1.504 1.504 0 0 1-1.5 1.5h-4c-.828 0-1.5-.673-1.5-1.5zM57.5 31c.275 0 .5.225.5.5v3c0 .275-.225.5-.5.5h-.479v-4h.479zm-17.479-6.5c0-1.228.89-2.252 2.059-2.461A2.503 2.503 0 0 0 44.521 24h11c.827 0 1.5.673 1.5 1.5v3c0 .275-.225.5-.5.5h-16a.501.501 0 0 1-.5-.5v-4zm-.5 10.5a.501.501 0 0 1-.5-.5v-3c0-.275.225-.5.5-.5h.5v4h-.5zm1.5 3.5V30h15v8.5a6.53 6.53 0 0 1-3 5.472V41.5c0-1.379-1.121-2.5-2.5-2.5h-4a2.502 2.502 0 0 0-2.5 2.5v2.47a6.53 6.53 0 0 1-3-5.47zm5.5 8.5h4c.167 0 .33-.019.488-.051l-.01 1.761a2.495 2.495 0 0 1-2.493 2.492 2.494 2.494 0 0 1-2.492-2.489l.01-1.763c.16.032.326.05.497.05zM65 74h-5.989c.001-.016.009-.029.009-.045V60.5a.5.5 0 0 0-1 0v13.455c0 .016.008.029.009.045H38.011c.001-.016.009-.029.009-.045V60.5a.5.5 0 0 0-1 0v13.455c0 .016.008.029.009.045H31V61.216c0-6.675 5.379-12.11 12.029-12.217.158 2.892 2.554 5.199 5.485 5.199 2.913 0 5.299-2.279 5.482-5.147C60.166 49.666 65 54.887 65 61.216V74z"></path></svg>