<svg xmlns="http://www.w3.org/2000/svg" xmlns:xlink="http://www.w3.org/1999/xlink" width="32" height="32" id="share"><defs><linearGradient id="a"><stop offset="0" stop-color="#24f3d2"></stop><stop offset=".394" stop-color="#0674f0"></stop><stop offset=".507" stop-color="#6961b5"></stop><stop offset=".813" stop-color="#f34660"></stop><stop offset="1" stop-color="#ee078d"></stop></linearGradient><linearGradient id="b" x1="868.253" x2="937.656" y1="521.354" y2="588.736" gradientTransform="translate(-893.646 499.682) scale(1.02524)" gradientUnits="userSpaceOnUse" xlink:href="#a"></linearGradient></defs><g fill="#fff" transform="translate(9 -1028.362)"><rect width="32" height="32" x="-9" y="1028.362" fill="url(#b)" rx="6.763" ry="6.763"></rect><path d="M19.75 10c-1.099 0-2 .901-2 2 0 .179.018.366.063.531l-3.188 1.844a2.5 2.5 0 0 0-1.875-.875 2.508 2.508 0 0 0-2.5 2.5c0 1.375 1.125 2.5 2.5 2.5.748 0 1.416-.35 1.875-.875l3.188 1.844a2.05 2.05 0 0 0-.063.531c0 1.099.901 2 2 2s2-.901 2-2-.901-2-2-2c-.56 0-1.073.249-1.438.625l-3.187-1.844c.08-.242.125-.513.125-.781s-.046-.507-.125-.75l3.188-1.875c.364.377.876.625 1.437.625 1.099 0 2-.901 2-2s-.901-2-2-2zm0 1c.558 0 1 .442 1 1s-.442 1-1 1-1-.442-1-1 .442-1 1-1zm-7 3.5c.834 0 1.5.666 1.5 1.5s-.666 1.5-1.5 1.5-1.5-.666-1.5-1.5.666-1.5 1.5-1.5zm7 4.5c.558 0 1 .442 1 1s-.442 1-1 1-1-.442-1-1 .442-1 1-1z" color="#000" font-family="sans-serif" font-weight="400" overflow="visible" transform="translate(-9 1028.362)" style="text-indent:0;text-align:start;line-height:normal;text-transform:none;block-progression:tb"></path></g></svg>